# xmcd
#
# Track frame offsets: 
#        150
#        9028
#        20695
#        32044
#        47112
#        56001
#        74475
#        132984
#        173056
#        184654
#        194478
#        200193
#        215606
#
# Disc length: 3159 seconds
#
# Revision: 0
# Processed by: cddbd v1.5.2PL0 Copyright (c) Steve Scherf et al.
# Submitted via: ExactAudioCopyFreeDBPlugin 1.0
#
DISCID=c10c550d
DTITLE=Dean Blunt - Heavy Metal
DYEAR=2014
DGENRE=Rock
TTITLE0=Lush
TTITLE1=50 Cent
TTITLE2=Blow
TTITLE3=100
TTITLE4=Heavy
TTITLE5=Molly and Acquafina
TTITLE6=Forever
TTITLE7=X
TTITLE8=Punk
TTITLE9=Country
TTITLE10=Hush
TTITLE11=Mersh
TTITLE12=Grade
EXTD=
EXTT0=
EXTT1=
EXTT2=
EXTT3=
EXTT4=
EXTT5=
EXTT6=
EXTT7=
EXTT8=
EXTT9=
EXTT10=
EXTT11=
EXTT12=
PLAYORDER=
